# xmcd CD database file
#
# Track frame offsets:
#	150
#	31447
#	53995
#	80026
#	100513
#	120995
#	141839
#	165081
#	179990
#	202693
#
# Disc length: 3091 seconds
#
# Revision: 0
# Processed by: cddbd v1.5.2PL0 Copyright (c) Steve Scherf et al.
# Submitted via: jetAudio 7
#
DISCID=7c0c110a
DTITLE=TAN BAU - DUC THANH
DYEAR=1900
DGENRE=Ethnic
TTITLE0=Giot Mua Thu
TTITLE1=Dem Tan Ben Ngu
TTITLE2=Thien Thai
TTITLE3=May Nhip Cau Tre
TTITLE4=Que Me
TTITLE5=Thuyen Vien Xu
TTITLE6=Sao Em No Voi Lay Chong
TTITLE7=Nguoi O Dung Ve
TTITLE8=Chi Toi
TTITLE9=Lien Khuc Dan Ca VietNam
EXTD=
EXTT0=
EXTT1=
EXTT2=
EXTT3=
EXTT4=
EXTT5=
EXTT6=
EXTT7=
EXTT8=
EXTT9=
PLAYORDER=
